<svg width="200" height="51" viewBox="0 0 200 51" fill="none" xmlns="http://www.w3.org/2000/svg">
<path d="M18 41.14H39.79V45.66H18V41.14ZM175.58 26.63L182.45 19.05H177.33L171.7 25.35V19.05H167.62V34.98H171.72V28.27L177.74 34.98H183L175.58 26.63ZM42.19 27.68C42.08 30.68 41.7 31.25 40.04 31.25V34.99H40.66C44.83 34.99 45.82 32.84 45.97 28.05L46.15 22.75H50V34.98H54.08V19.05H42.47L42.19 27.68ZM24.48 30.42H33.08L34.51 34.98H39.28L32.85 15.82C32.23 13.97 31.51 12.5 29.05 12.5C26.59 12.5 25.84 13.97 25.18 15.82L18.44 34.98H22.92L24.48 30.42ZM28.84 17.5H28.95L31.83 26.58H25.77L28.84 17.5ZM124.15 21.31H119.6V16.81H130.16V12.81H115.32V34.98H124.15C129.04 34.98 131.85 32.54 131.85 28.08C131.85 23.85 129 21.31 124.15 21.31ZM123.94 30.97H119.6V25.21H123.94C126.2 25.21 127.47 26.21 127.47 28.09C127.47 29.97 126.2 30.97 123.94 30.97ZM83.59 18.68V12.78H79.52V18.68C77.3829 18.7505 75.3611 19.6663 73.8986 21.2262C72.4362 22.7862 71.6526 24.8628 71.72 27C71.6472 29.1416 72.428 31.2244 73.8908 32.7903C75.3535 34.3563 77.3784 35.277 79.52 35.35V41.35H83.6V35.35C84.6608 35.3151 85.7044 35.0714 86.6708 34.6326C87.6373 34.1939 88.5077 33.5688 89.2323 32.7932C89.9568 32.0175 90.5212 31.1066 90.8932 30.1125C91.2652 29.1184 91.4374 28.0607 91.4 27C91.4428 25.9386 91.2737 24.8793 90.9028 23.884C90.5318 22.8886 89.9663 21.9771 89.2393 21.2026C88.5123 20.4282 87.6383 19.8062 86.6684 19.3731C85.6984 18.94 84.652 18.7044 83.59 18.68ZM79.53 31.5C78.4502 31.3814 77.4603 30.8431 76.7738 30.0013C76.0872 29.1595 75.759 28.0816 75.86 27C75.772 25.9211 76.1049 24.85 76.7891 24.0112C77.4732 23.1723 78.4555 22.6308 79.53 22.5V31.5ZM83.61 31.5V22.5C84.6845 22.6308 85.6668 23.1723 86.3509 24.0112C87.0351 24.85 87.368 25.9211 87.28 27C87.3757 28.0805 87.0456 29.1556 86.36 29.9963C85.6745 30.8369 84.6877 31.3765 83.61 31.5ZM106.69 30.09V24.72C106.69 20.8 104.2 18.35 100.02 18.35C95.84 18.35 93.4 20.95 93.2 23.66H97.33C97.47 23.08 98.09 22.05 100.01 22.05C100.369 22.0038 100.733 22.0416 101.074 22.1606C101.416 22.2796 101.725 22.4763 101.977 22.7354C102.229 22.9944 102.418 23.3086 102.528 23.653C102.638 23.9975 102.666 24.3628 102.61 24.72H98.61C94.99 24.72 92.84 26.63 92.84 29.79C92.8118 30.5441 92.9422 31.2957 93.2228 31.9962C93.5035 32.6967 93.9281 33.3304 94.4692 33.8564C95.0102 34.3824 95.6557 34.7889 96.3639 35.0497C97.072 35.3104 97.827 35.4195 98.58 35.37C99.4301 35.4147 100.278 35.2492 101.049 34.8882C101.82 34.5271 102.49 33.9817 103 33.3C103.332 33.8615 103.816 34.3173 104.397 34.6146C104.977 34.912 105.63 35.0387 106.28 34.98H107.69V31.3C107 31.3 106.69 30.97 106.69 30.09ZM102.61 29.09C102.627 29.4839 102.56 29.8769 102.413 30.243C102.267 30.6091 102.045 30.9401 101.762 31.2141C101.478 31.4881 101.14 31.6989 100.769 31.8327C100.398 31.9664 100.003 32.02 99.61 31.99C98.14 31.99 96.98 31.46 96.98 29.87C96.98 28.28 98.27 28.05 99.36 28.05H102.61V29.09ZM64.24 23.89H61.31V19.05H57.23V34.98H64.31C68.74 34.98 70.31 32.1 70.31 29.38C70.33 25.87 68.13 23.89 64.24 23.89ZM63.94 31.5H61.31V27.5H63.94C65.35 27.5 66.2 28.14 66.2 29.5C66.2 30.86 65.39 31.5 63.94 31.5ZM147.42 30.09V24.72C147.42 20.8 144.93 18.35 140.75 18.35C136.57 18.35 134.13 20.95 133.93 23.66H138.06C138.2 23.08 138.82 22.05 140.74 22.05C141.099 22.0038 141.463 22.0416 141.804 22.1606C142.146 22.2796 142.455 22.4763 142.707 22.7354C142.959 22.9944 143.148 23.3086 143.258 23.653C143.368 23.9975 143.396 24.3628 143.34 24.72H139.34C135.72 24.72 133.57 26.63 133.57 29.79C133.542 30.5441 133.672 31.2957 133.953 31.9962C134.233 32.6967 134.658 33.3304 135.199 33.8564C135.74 34.3824 136.386 34.7889 137.094 35.0497C137.802 35.3104 138.557 35.4195 139.31 35.37C140.168 35.4231 141.026 35.2617 141.807 34.9004C142.587 34.539 143.265 33.989 143.78 33.3C144.107 33.8517 144.582 34.3012 145.151 34.598C145.72 34.8948 146.36 35.0271 147 34.98H148.41V31.3C147.7 31.3 147.42 30.97 147.42 30.09ZM143.36 29.09C143.375 29.4835 143.307 29.8757 143.16 30.2411C143.013 30.6065 142.791 30.9368 142.508 31.2105C142.225 31.4841 141.887 31.695 141.517 31.8294C141.147 31.9637 140.753 32.0184 140.36 31.99C138.89 31.99 137.73 31.46 137.73 29.87C137.73 28.28 139.02 28.05 140.11 28.05H143.36V29.09ZM160.45 24.98H154.82V19.05H150.74V34.99H154.82V28.71H160.45V34.98H164.53V19.05H160.45V24.98Z" fill="#EF3124"/>
</svg>
