<svg width="200" height="50" viewBox="0 0 200 50" fill="none" xmlns="http://www.w3.org/2000/svg">
<path fill-rule="evenodd" clip-rule="evenodd" d="M33.0122 7C23.0762 7 15 15.0732 15 25.0098C15 34.9258 23.0762 43 33.0122 43C42.9258 43 51 34.9258 51 25.0098C51 15.0732 42.9258 7 33.0122 7ZM33.0122 42.0996C23.5762 42.0996 15.8999 34.4297 15.8999 25.0098C15.8999 15.5703 23.5732 7.90039 33.0122 7.90039C42.4321 7.90039 50.1001 15.5742 50.1001 25.0098C50.1001 34.4277 42.4292 42.0996 33.0122 42.0996ZM85.8911 21.8281C85.8911 22.9727 84.8281 23.3486 84.2461 23.3486H82.707V26.6777H84.1641C85.3921 26.6777 85.9521 27.2607 85.9521 28.1357C85.9521 28.7578 85.4961 29.6143 84.3301 29.6143C83.6431 29.6143 82.957 29.5742 81.937 29.1338L81.874 32.3643C82.2075 32.5459 82.5239 32.6904 82.8413 32.8037C83.5742 33.0645 84.3145 33.1602 85.2871 33.1738C87.9102 33.1738 89.9492 31.5508 89.9492 28.6143C89.9492 26.2393 88.5332 25.2227 87.4731 24.8857V24.7412C88.5742 24.2812 89.7002 23.0977 89.7002 21.1396C89.7002 19.1211 88.3892 17.0596 85.4312 17.0596C84.8184 17.0527 84.207 17.0947 83.6025 17.1836C83.1611 17.249 82.7231 17.3389 82.291 17.4541L82.332 20.8291C83.103 20.4541 83.8931 20.3906 84.3081 20.3906C84.6641 20.3906 85.8911 20.4756 85.8911 21.8281ZM119.645 33.0498C123.911 33.0498 125.345 29.0498 125.345 25.0742C125.345 21.0996 123.911 17.1006 119.645 17.1006C115.379 17.1006 113.945 21.0996 113.945 25.0742C113.945 29.0498 115.379 33.0488 119.645 33.0498ZM119.645 29.2793C118.373 29.2793 117.731 27.8027 117.731 25.0742C117.731 22.3457 118.373 20.8682 119.645 20.8682C120.916 20.8682 121.558 22.3457 121.558 25.0742C121.558 27.8027 120.916 29.2793 119.645 29.2793ZM130.134 17.3301H127.075V32.8613H130.674V23.3877L132.836 26.0938L135 23.3877V32.8613H138.603V17.3291H135.565L132.836 20.9941L130.134 17.3301ZM141.037 32.8613H145.323C146.259 32.8613 150.152 32.4648 150.172 27.7578C150.172 23.8076 147.156 23.1182 145.199 23.1182H144.554V21.0576H149.319V17.3301H141.037V32.8613ZM144.554 29.7383V26.2197H145.074C145.295 26.2197 145.693 26.2256 146.032 26.4385C146.362 26.6465 146.636 27.0518 146.636 27.8428C146.636 29.4697 145.51 29.7383 145.074 29.7383H144.554ZM163.117 17.3301H166.634V22.9307H169.152V17.3301H172.667V32.8623H169.152V26.6367H166.634V32.8623H163.117V17.3301ZM175.039 17.3301H178.578L178.557 22.9102H179.326L181.345 17.3301H185.174L182.426 24.7021L185.57 32.8623H181.427L179.39 26.6152H178.557L178.578 32.8613H175.039V17.3301ZM154.523 32.8818H150.86L153.96 17.3516H158.497L161.577 32.8818H157.915L157.477 30.1963H154.961L154.523 32.8818ZM156.894 26.7812L156.228 22.0547L155.541 26.7812H156.894ZM107.116 32.8613H103.516V17.3291H108.325C111.715 17.3291 112.985 20.4932 112.985 22.4912C112.985 24.5342 111.881 27.7412 108.325 27.7412H107.116V32.8613ZM107.97 20.7441H107.116L107.117 24.3242H107.97C108.428 24.3242 109.303 24.2002 109.303 22.5342C109.303 21.2441 108.782 20.7441 107.97 20.7441ZM91.6338 17.3301H101.456V32.8604H97.855V21.0771H95.2349V32.8613H91.6338V17.3301ZM70.0981 32.8613H73.7383L74.1973 30.1738H76.7153L77.1514 32.8613H80.791L77.7109 17.3291H73.1763L70.0981 32.8613ZM75.4443 22.0137L76.1323 26.7607H74.7573L75.4443 22.0137ZM70.5107 17.3301H63.127V32.8604H66.7871V21.2002H70.5107V17.3301ZM38.1196 13.6934C35.271 12.4229 29.9629 12.2969 25.6147 14.2334C26.1748 13.833 26.7744 13.4932 27.4048 13.2168C28.7739 12.5791 30.9819 11.9609 33.7339 11.9609C33.8638 11.9609 33.9937 11.9619 34.124 11.9648C36.4771 12.0068 39.2666 12.8193 40.9717 14.5059C41.1426 14.7139 41.271 14.9219 41.3604 15.1133C41.4229 15.2471 41.4663 15.3721 41.4917 15.4844C42.8447 16.1719 43.6348 16.8164 44.0708 17.5664C44.2598 17.9609 44.3218 18.376 44.2368 18.8555C44.6807 19.1045 45.0654 19.4463 45.3647 19.8584C45.4604 20.0205 45.5454 20.1924 45.6113 20.3652C45.6729 20.5254 45.7173 20.6855 45.7378 20.8379C45.7988 21.251 45.8398 21.7295 45.4028 22.293C45.8608 22.5225 46.2339 23.165 46.2788 23.4385C46.5078 24.4551 45.8398 25.4551 44.9878 26.2275C43.9878 27.1006 41.7817 28.1416 39.9917 28.6006C36.458 29.4951 33.313 29.8711 30.8179 30.3301C31.9409 30.5996 33.459 30.9551 35.937 30.9551C41.2407 30.9551 45.9238 28.4541 45.9238 28.4541C45.9238 28.4541 45.8208 28.7686 45.7148 29.0605C42.3447 31.0996 36.998 31.9521 34.707 31.8477C32.397 31.7422 30.4419 31.3896 28.5269 30.8057C27.9419 30.9707 27.3657 31.165 26.8008 31.3896C29.7158 32.7217 31.9199 33.0146 34.397 33.2002C36.9336 33.3896 41.1396 32.7832 44.6738 31.4961C44.5078 31.6641 44.4248 31.9121 44.2598 32.0576C43.0537 32.6953 40.9541 33.333 39.1143 33.7119C38.1909 33.9023 37.333 34.0283 36.686 34.0557C34.77 34.1396 32.4399 34.0557 30.3999 33.6797C28.6519 33.3281 27.2139 32.7832 25.7168 32.1201C25.4487 32.3252 25.3237 32.5781 25.2588 32.8701C31.1099 35.9297 36.5586 35.9902 42.7837 34.0557L42.2197 34.5977C35.373 37.3877 30.0249 36.3037 25.8818 34.3047L25.707 34.2295C25.6147 34.1895 25.5234 34.1465 25.4487 34.0967C25.8447 34.7637 29.0049 37.0742 32.543 37.3662C34.98 37.5742 37.9546 37.1572 39.7227 36.4512L38.6826 36.9912C37.8286 37.4082 35.561 38.3682 32.396 38.1582C28.1729 37.8652 25.7998 35.9912 24.7378 35.0146C24.2388 34.5537 24.0117 34.0352 23.8647 33.3896C23.1724 33.0283 22.665 32.6553 22.2495 32.1777C22.0903 31.9941 21.9443 31.7959 21.8066 31.5771C21.5146 31.1406 21.5747 30.6211 21.6367 30.1807L21.7666 29.8105C21.3057 29.4736 20.8276 29.1201 20.6406 28.7686C20.2217 28.0186 20.4756 27.3721 20.7656 26.8721C20.5146 26.5811 20.2847 26.29 20.1851 25.999C20.0586 25.666 20.0391 25.3291 20.0767 24.9561C20.1616 24.333 20.4946 23.752 20.9316 23.25C21.8457 22.1875 23.3057 21.3555 25.7788 20.5439C28.2158 19.7295 29.1948 19.6045 31.0259 19.1865C31.8398 18.998 32.7144 18.8574 33.603 18.7139C35.0537 18.4805 36.5425 18.2402 37.8706 17.7754C31.8979 16.7354 25.6978 17.6914 20.6406 21.165L20.9727 20.1875C25.5088 17.2324 30.5249 15.4844 39.0146 16.9629C39.4727 16.6914 39.7427 16.4199 39.8696 15.8799C37.7456 15.1104 35.437 14.8398 32.4619 14.8799C29.7969 14.9648 24.9878 15.96 22.4116 17.4854L23.1987 16.5049C24.9878 15.4395 29.6699 14.0469 33.1899 13.9844C35.6641 13.9229 36.9336 14.0674 39.8896 14.8594C39.6353 14.3965 39.0952 14.1465 38.2993 13.7764L38.1196 13.6934ZM42.6558 18.0254C42.5747 17.4424 41.9087 16.8799 41.3247 16.5049C41.2417 16.7969 40.9326 17.1504 40.7227 17.3799C41.3677 17.5479 42.0337 17.7939 42.6558 18.0254ZM39.8076 18.2109C39.3887 18.5449 38.9126 18.835 38.2026 19.1084C38.8325 19.2188 39.3774 19.3662 39.9014 19.5225C40.3491 19.6553 40.7817 19.7939 41.2407 19.9189C41.251 19.9238 41.2627 19.9258 41.2739 19.9248C41.4907 19.9248 42.2036 19.2656 42.3267 19.085C41.6147 18.7725 40.7407 18.459 39.8076 18.2109ZM44.2598 21.2715C44.5288 20.751 44.3628 20.418 43.8027 19.9385C43.5728 20.2119 43.3228 20.4385 43.0527 20.6465C43.4888 20.8545 43.8867 21.002 44.2598 21.2715ZM34.897 20.1699C32.1499 20.5029 29.1099 21.083 26.5098 21.8545L26.3711 21.8965C25.0806 22.2891 20.2007 23.7695 21.6826 25.8105C21.6978 25.8105 22.623 24.5342 26.1128 23.5195C28.3936 22.8496 30.7319 22.4238 33.1069 21.9912C35.2402 21.6025 37.4033 21.208 39.5796 20.627C37.7891 20.1504 36.7866 19.9385 34.897 20.1699ZM37.8721 22.6885C36.395 23.0625 32.814 23.583 28.9658 24.415C27.7578 24.6855 24.4478 25.4551 22.8247 26.8301C23.0356 27.0039 23.2114 27.1152 23.3882 27.2129C23.5947 27.3271 23.8032 27.4229 24.0718 27.5801C24.7378 27.1416 25.6548 26.7256 27.0098 26.3701C29.3569 25.7471 31.1299 25.4785 33.252 25.127C35.354 24.8086 39.3276 23.9766 41.5117 23.1855C42.0254 23.0117 42.5063 22.7949 42.9121 22.543C43.084 22.4365 43.2427 22.3242 43.3848 22.2061C43.2388 22.042 41.8237 21.3555 41.7817 21.4189C40.9106 21.834 39.6616 22.249 37.8721 22.6885ZM32.75 26.875C31.1582 27.1387 29.6245 27.3926 28.0059 27.79C27.2778 27.9746 26.5288 28.2051 25.8447 28.4951C26.5288 28.8496 27.2788 29.1631 28.0269 29.4551C29.5249 29.0176 30.2358 28.8301 32.396 28.4766C33.229 28.3281 35.7681 27.8711 37.5986 27.5C40.9106 26.7891 45.7588 25.248 44.4688 23.25C44.4043 23.3047 44.3398 23.3545 44.2754 23.4043C44.1938 23.4688 44.1128 23.5332 44.0317 23.6045C43.0527 24.3496 41.4917 24.9561 39.3496 25.5195C36.8643 26.1924 34.7607 26.541 32.75 26.875ZM22.751 28.5967C22.8135 28.5488 22.8745 28.501 22.9297 28.4541C22.6616 28.3154 22.4604 28.1943 22.2559 28.0654L21.9507 27.8701C21.8774 28.0371 21.9014 28.21 21.979 28.3672C22.0781 28.5674 22.2651 28.7432 22.4507 28.8496C22.5405 28.7598 22.6475 28.6768 22.751 28.5967ZM26.3198 30.0576C25.7168 29.7871 25.0728 29.5186 24.4478 29.2266C24.1567 29.4141 23.8877 29.5996 23.6787 29.7871C24.1777 30.0791 24.6577 30.3477 25.1577 30.6221C25.5254 30.3955 25.9146 30.2061 26.3198 30.0576ZM23.8877 31.9951C23.9478 31.7852 24.0537 31.6201 24.1997 31.4121C23.8438 31.2217 23.4907 31.0361 23.1377 30.8057C23.1147 31.2031 23.3667 31.5566 23.8877 31.9951Z" fill="#476BF0"/>
</svg>
