<svg width="200" height="50" viewBox="0 0 200 50" fill="none" xmlns="http://www.w3.org/2000/svg">
<path d="M25.001 27.53C25.001 32.25 27.651 37 33.571 37C39.491 37 42.141 32.25 42.141 27.53C42.141 24.31 41.051 20.6 39.241 17.61C37.481 14.72 35.361 13 33.571 13C31.781 13 29.661 14.72 27.911 17.61C26.091 20.61 25.001 24.31 25.001 27.53ZM85.861 20.07H79.861V14.29H98.291V20.08H92.291V35.72H85.861V20.07ZM112.001 20.07H121.431V14.29H112.001C103.341 14.29 98.711 18.6 98.711 25C98.711 31.41 103.341 35.71 112.001 35.71H121.431V29.92H112.001C107.991 29.92 105.351 28.49 105.351 24.99C105.351 21.5 107.991 20.07 112.001 20.07ZM63.351 27.08L66.781 14.29H78.141V35.72H71.711V18.27L67.041 35.71H59.671L55.001 18.28V35.71H48.571V14.29H59.931L63.351 27.08ZM137.441 20.5H135.171V22.6H137.441C138.011 22.6 138.361 22.3 138.361 21.76V21.37C138.351 20.81 138.061 20.5 137.441 20.5ZM138.011 25H132.141V14.29H140.771V16.85H135.161V18.25H138.001C140.381 18.25 141.531 19.43 141.531 21.51C141.541 23.7 140.391 25 138.011 25ZM148.521 20.62H146.131L147.331 16.66L148.521 20.62ZM153.121 25L149.811 14.29H145.311L142.001 25H144.831L145.441 22.95H149.231L149.851 25H153.121ZM160.771 25V20.85H157.311V25H154.211V14.29H157.311V18.22H160.771V14.29H163.881V25H160.771ZM169.391 18.21H168.851V14.29H165.751V25H168.851V20.85H169.301L172.171 25H175.761L171.881 19.39L175.451 14.28H172.171L169.391 18.21Z" fill="#E30600"/>
</svg>
