<svg width="200" height="50" viewBox="0 0 200 50" fill="none" xmlns="http://www.w3.org/2000/svg">
<path d="M34 9C25.1521 9 18 16.1521 18 25C18 33.8479 25.1521 41 34 41C42.8479 41 50 33.8479 50 25C50 16.1521 42.8479 9 34 9ZM31.788 31.7834L30.6083 35.2488C26.1843 33.7742 23.235 29.5714 23.235 24.8525C23.235 20.1336 26.1843 16.0046 30.682 14.4562L31.8617 17.9217C28.9124 18.8802 26.9954 21.682 26.9954 24.7788C26.8479 28.023 28.8387 30.8249 31.788 31.7834ZM37.2442 35.3226L36.1382 31.7834C39.1613 30.8249 41.1521 28.023 41.1521 24.8525C41.1521 21.682 39.1613 18.9539 36.212 17.9954L37.3917 14.4562C41.8894 15.9309 44.9124 20.1336 44.9124 24.8525C44.9124 29.7189 41.8157 33.9217 37.2442 35.3226Z" fill="#00BEF0"/>
<path d="M180.507 27.8753L182.277 30.0136C180.433 31.9306 178.148 32.4467 176.304 32.4467C174.535 32.4467 173.281 32.1518 172.175 31.6357C169.816 30.456 168.636 28.0965 168.636 25.2209C168.636 20.8707 171.586 17.6265 175.936 17.6265C180.802 17.6265 183.162 21.2394 182.793 25.9583H171.733C171.807 27.138 172.47 28.244 173.429 28.8338C174.24 29.35 175.198 29.5712 176.452 29.5712C177.853 29.5712 179.254 29.1288 180.507 27.8753ZM171.807 23.3776H179.622C179.401 21.6818 178 20.2071 175.788 20.2071C173.503 20.2071 172.102 21.8292 171.807 23.3776ZM97.5579 32.0043H101.539L95.2721 24.7048L101.466 17.8477H97.5579L92.839 23.3039H91.438V17.8477H88.415V31.9306H91.438V26.3269H92.839L97.5579 32.0043ZM110.535 20.4283C107.954 20.4283 106.258 22.4191 106.258 24.926C106.258 27.4329 107.954 29.4237 110.535 29.4237C113.115 29.4237 114.738 27.5067 114.738 24.926C114.811 22.4928 113.189 20.4283 110.535 20.4283ZM111.051 17.5527C115.033 17.5527 117.982 20.6495 117.982 24.926C117.982 29.1288 115.106 32.373 111.051 32.373C109.134 32.373 107.586 31.7094 106.48 30.5297V37.903H103.383V17.9214H106.406V19.6172C107.586 18.2163 109.134 17.5527 111.051 17.5527ZM151.235 17.9214H138.627V20.7232H143.42V32.0043H146.516V20.7232H151.309V17.9214H151.235ZM86.2767 17.9214H73.5947V20.7232H78.3873V32.0043H81.4841V20.7232H86.2767V17.9214ZM69.9081 24.9997C69.9081 22.3454 68.0648 20.4283 65.4841 20.4283C62.9772 20.4283 61.0602 22.3454 61.0602 24.9997C61.0602 27.6541 62.9035 29.5712 65.4841 29.5712C67.991 29.5712 69.9081 27.6541 69.9081 24.9997ZM57.8896 24.9997C57.8896 20.797 61.1339 17.6265 65.4841 17.6265C69.7606 17.6265 73.0786 20.797 73.0786 24.9997C73.0786 29.2025 69.8344 32.4467 65.4841 32.4467C61.2076 32.373 57.8896 29.2025 57.8896 24.9997ZM166.203 17.9214V32.0043H163.18V22.9352L155.807 32.0043H153.374V17.9214H156.397V26.9905L163.77 17.9214H166.203ZM136.489 32.0043H133.466V17.9214H136.489V32.0043ZM128.673 27.2117C128.673 25.9583 127.788 25.0735 126.609 25.0735H123.512V29.4237H126.609C127.788 29.4237 128.673 28.4652 128.673 27.2117ZM131.696 27.2117C131.696 30.0136 129.632 32.0043 126.682 32.0043H120.489V17.9214H123.512V22.4928H126.977C129.927 22.4928 131.696 24.4099 131.696 27.2117Z" fill="black"/>
</svg>
