<svg width="200" height="50" viewBox="0 0 200 50" fill="none" xmlns="http://www.w3.org/2000/svg">
<path d="M42.9312 10.9609H14.001V25.7173H42.9312V10.9609Z" fill="#E9041E"/>
<path d="M71.643 18.184L65.7486 10.9608H68.7333L73.0638 16.2658L76.9888 10.9608H79.9735L71.1523 22.8791H68.1677L71.643 18.184ZM121.681 22.736H123.858V10.7394H121.589L113.766 19.7785L113.708 19.7615C113.844 17.4957 113.861 15.6491 113.861 13.8705V10.7359H111.684V22.736H113.936L121.729 13.6934L121.759 13.7104C121.677 15.4889 121.677 18.5894 121.677 19.598V22.736H121.681ZM137.156 15.5673H129.32V10.7257H127.102V22.7087H129.32V17.5162H137.156V22.7087H139.374V10.7257H137.156V15.5673ZM146.383 17.8876H151.02L148.706 13.0017L146.383 17.8876ZM145.453 19.8399L144.069 22.77H141.664L147.517 10.7257H149.868L155.746 22.77H153.33L151.96 19.8399H145.453ZM167.364 15.5673H159.528V10.7257H157.31V22.7087H159.528V17.5162H167.364V22.7087H169.582V10.7257H167.364V15.5673ZM179.599 23.2368C175.609 23.2368 172.604 20.7053 172.604 16.9199C172.604 13.2061 175.66 10.6303 179.599 10.6303C181.947 10.6303 183.633 11.3015 185.139 12.4089L183.967 14.1533C182.87 13.3186 181.483 12.6985 179.657 12.6985C176.754 12.6985 174.935 14.5349 174.935 16.9199C174.935 19.3867 176.761 21.1618 179.695 21.1618C181.514 21.1618 182.965 20.5724 184.062 19.7342L185.235 21.4787C183.732 22.5963 181.95 23.2368 179.599 23.2368ZM86.6992 23.1687C89.0467 23.1687 90.8321 22.5281 92.338 21.4174L91.166 19.6729C90.0689 20.5111 88.6174 21.1005 86.798 21.1005C83.8678 21.1005 82.0382 19.3254 82.0382 16.8586C82.0382 14.4736 83.8542 12.6371 86.7605 12.6371C88.5868 12.6371 89.9701 13.2572 91.0706 14.092L92.2426 12.3475C90.7367 11.2402 89.0501 10.569 86.7026 10.569C82.7639 10.569 79.7077 13.1448 79.7077 16.8586C79.7043 20.6371 82.7094 23.1687 86.6992 23.1687ZM100.461 23.2879H102.597V22.1738C106.189 21.8365 108.969 19.6014 108.969 16.3884C108.969 13.2164 106.189 10.9506 102.597 10.6065V10H100.461V10.6303C96.9786 11.046 94.2733 13.2845 94.2733 16.3884C94.2733 19.5366 96.9786 21.7411 100.461 22.1499V23.2879ZM100.461 12.7121V20.092C98.2597 19.7138 96.9139 18.2555 96.9139 16.3884C96.9173 14.5792 98.3108 13.1073 100.461 12.7121ZM102.601 20.1261V12.6746C104.914 13.0017 106.338 14.5111 106.338 16.3884C106.338 18.3066 104.914 19.8024 102.601 20.1261ZM60.5425 10.9608C63.1421 10.9608 64.781 12.661 64.781 15.0085C64.781 17.4617 63.1421 18.8688 60.5425 18.8688H55.3602V22.8722H53.1523V10.9608H60.5425ZM60.6651 16.8961C61.8133 16.8961 62.522 16.1056 62.522 15.0392C62.522 13.8637 61.8133 12.9267 60.5425 12.9267H55.3602V16.8927H60.6651V16.8961Z" fill="black"/>
<path d="M42.9312 25.4277H14.001V39.8945H42.9312V25.4277Z" fill="black"/>
<path d="M74.1547 27.9561H71.8038L65.9503 40.0004H68.3558L69.7391 37.0703H76.2433L77.613 40.0004H80.0287L74.1547 27.9561ZM70.6692 35.118L72.9963 30.2321L75.3098 35.118H70.6692ZM105.364 39.9425H108.434L102.049 33.7926L108.335 27.9595H105.265L99.3575 33.4383V27.9561H97.1394V39.9425H99.3575V34.382H99.5926L105.364 39.9425ZM91.6539 32.8011H83.8175V27.9561H81.596V39.9425H83.8175V34.75H91.6539V39.9425H93.872V27.9561H91.6539V32.8011ZM64.4478 34.0553C63.7221 32.8969 62.3183 32.3654 60.9998 32.3313C59.1463 32.2904 57.2894 32.3211 55.4359 32.3177C55.4291 31.4931 55.4325 30.672 55.4223 29.8475C58.2706 29.8304 61.119 29.8577 63.9674 29.8304C63.964 29.2137 63.964 28.597 63.9708 27.9804C60.3694 27.9497 56.7647 27.9735 53.1565 27.9701C53.1735 31.9429 53.1326 35.919 53.1803 39.8918C55.5245 39.8816 57.8686 39.8952 60.2127 39.8884C61.0509 39.8577 61.9095 39.7896 62.7033 39.4829C63.7528 39.0672 64.6284 38.1575 64.8805 37.0366C65.0236 36.0383 65.0168 34.9378 64.4478 34.0553ZM61.1565 37.8475C59.2519 37.9122 57.3439 37.8441 55.4393 37.8781C55.4325 36.6754 55.4154 35.4727 55.4495 34.27C57.2792 34.3006 59.1122 34.2427 60.9418 34.2972C61.9265 34.3449 62.9691 35.0775 62.8601 36.1643C62.9453 37.1149 62.0458 37.8407 61.1565 37.8475Z" fill="black"/>
<path d="M37.8787 24.5488H19.0576V26.3103H37.8787V24.5488Z" fill="white"/>
</svg>
