<svg width="200" height="51" viewBox="0 0 200 51" fill="none" xmlns="http://www.w3.org/2000/svg">
<path d="M56.9057 7.5L55.1777 12.2398H79.1146L80.8425 7.5H56.9057ZM54.3148 14.6076L52.5868 19.3464H76.5237L78.2516 14.6076H54.3148ZM51.7289 21.7152L50.001 26.453H73.9378L75.6638 21.7142C75.6648 21.7152 51.7289 21.7152 51.7289 21.7152Z" fill="#009FDF"/>
<path d="M100.323 27.9405V28.0389C101.398 28.4337 102.426 29.1249 102.963 29.5689C104.625 30.9513 105.359 32.7766 105.359 35.1455C105.359 39.0464 103.306 41.8583 99.9312 42.7474C98.9034 43.0438 97.8285 43.1422 95.8243 43.1422H85.6074V14.6133H94.6529C96.5115 14.6133 97.7813 14.7117 98.9055 15.0071C102.181 15.8962 104.333 18.1666 104.333 21.7691C104.333 23.695 103.649 25.3244 102.525 26.4094C102.036 26.9027 101.352 27.4954 100.325 27.9394L100.323 27.9405ZM91.2785 30.9513V38.4537H95.1904C96.3628 38.4537 97.4397 38.3553 98.2213 37.6149C99.0039 36.8745 99.3455 35.9362 99.3455 34.7025C99.3455 33.7662 99.1004 32.8771 98.6121 32.2352C97.7813 31.1984 96.7536 30.9513 94.9945 30.9513H91.2774H91.2785ZM91.2282 26.0146H94.4068C95.3843 26.0146 95.8735 26.0146 96.3618 25.8669C97.6828 25.4711 98.5137 24.2887 98.5137 22.6592C98.5137 20.7344 97.6336 19.8945 96.3618 19.5007C95.8233 19.352 95.2868 19.3038 94.2109 19.3038H91.2282V26.0156V26.0146ZM113.866 43.1432V19.4013H105.702V14.6143H128.389L126.775 19.4013H119.538V43.1432H113.866ZM130.149 43.1432V14.6143H148.533L146.92 19.4013H135.773V25.7203H140.321C143.987 25.7203 145.894 26.6093 147.215 27.7435C148.243 28.6326 150.002 30.6057 150.002 34.5066C150.002 38.3563 148.194 40.478 146.677 41.565C144.917 42.7976 143.059 43.1442 139.293 43.1442H130.15H130.149V43.1432ZM135.772 38.3543H140.025C141.639 38.3543 142.616 37.9594 143.3 37.0704C143.642 36.6273 144.131 35.8357 144.131 34.3559C144.131 32.8761 143.642 31.8383 142.664 31.0979C142.079 30.6549 141.295 30.4088 139.975 30.4088H135.77V38.3543H135.772Z" fill="#0A2973"/>
</svg>
